<svg width="25" height="25" viewBox="0 0 25 25" fill="none" xmlns="http://www.w3.org/2000/svg">
<path d="M14.4443 2.81006H6.44434C5.91391 2.81006 5.4052 3.02077 5.03012 3.39584C4.65505 3.77092 4.44434 4.27963 4.44434 4.81006V20.8101C4.44434 21.3405 4.65505 21.8492 5.03012 22.2243C5.4052 22.5993 5.91391 22.8101 6.44434 22.8101H18.4443C18.9748 22.8101 19.4835 22.5993 19.8586 22.2243C20.2336 21.8492 20.4443 21.3405 20.4443 20.8101V8.81006L14.4443 2.81006Z" stroke="black" stroke-width="2" stroke-linecap="round" stroke-linejoin="round"/>
<path d="M14.4443 2.81006V8.81006H20.4443" stroke="black" stroke-width="2" stroke-linecap="round" stroke-linejoin="round"/>
<path d="M8.44434 13.8101H12.4443" stroke="black" stroke-width="2" stroke-linecap="round" stroke-linejoin="round"/>
<path d="M8.44434 17.8101H10.4443" stroke="black" stroke-width="2" stroke-linecap="round" stroke-linejoin="round"/>
<path d="M13.4443 18.3101L15.4443 20.3101L19.4443 16.3101" stroke="black" stroke-width="2" stroke-linecap="round" stroke-linejoin="round"/>
</svg>
