<svg width="25" height="25" viewBox="0 0 25 25" fill="none" xmlns="http://www.w3.org/2000/svg">
<path d="M9.44434 3.61572H4.44434C3.89205 3.61572 3.44434 4.06344 3.44434 4.61572V11.6157C3.44434 12.168 3.89205 12.6157 4.44434 12.6157H9.44434C9.99662 12.6157 10.4443 12.168 10.4443 11.6157V4.61572C10.4443 4.06344 9.99662 3.61572 9.44434 3.61572Z" stroke="#181616" stroke-width="2" stroke-linecap="round" stroke-linejoin="round"/>
<path d="M20.4443 3.61572H15.4443C14.8921 3.61572 14.4443 4.06344 14.4443 4.61572V7.61572C14.4443 8.16801 14.8921 8.61572 15.4443 8.61572H20.4443C20.9966 8.61572 21.4443 8.16801 21.4443 7.61572V4.61572C21.4443 4.06344 20.9966 3.61572 20.4443 3.61572Z" stroke="#181616" stroke-width="2" stroke-linecap="round" stroke-linejoin="round"/>
<path d="M20.4443 12.6157H15.4443C14.8921 12.6157 14.4443 13.0634 14.4443 13.6157V20.6157C14.4443 21.168 14.8921 21.6157 15.4443 21.6157H20.4443C20.9966 21.6157 21.4443 21.168 21.4443 20.6157V13.6157C21.4443 13.0634 20.9966 12.6157 20.4443 12.6157Z" stroke="#181616" stroke-width="2" stroke-linecap="round" stroke-linejoin="round"/>
<path d="M9.44434 16.6157H4.44434C3.89205 16.6157 3.44434 17.0634 3.44434 17.6157V20.6157C3.44434 21.168 3.89205 21.6157 4.44434 21.6157H9.44434C9.99662 21.6157 10.4443 21.168 10.4443 20.6157V17.6157C10.4443 17.0634 9.99662 16.6157 9.44434 16.6157Z" stroke="#181616" stroke-width="2" stroke-linecap="round" stroke-linejoin="round"/>
</svg>
